<?xml version="1.0" standalone="no"?>
<!DOCTYPE svg PUBLIC "-//W3C//DTD SVG 20010904//EN"
 "http://www.w3.org/TR/2001/REC-SVG-20010904/DTD/svg10.dtd">
<svg version="1.0" xmlns="http://www.w3.org/2000/svg"
 width="16.000000pt" height="16.000000pt" viewBox="0 0 16.000000 16.000000"
 preserveAspectRatio="xMidYMid meet">
<metadata>
Created by potrace 1.11, written by Peter Selinger 2001-2013
</metadata>
<g transform="translate(0.000000,16.000000) scale(0.001833,-0.001833)"
fill="#000000" stroke="none">
<path d="M20 4380 l0 -4350 4350 0 4350 0 0 4350 0 4350 -4350 0 -4350 0 0
-4350z m4455 1530 c283 -27 537 -117 775 -275 52 -34 117 -83 144 -107 l49
-44 -168 -225 c-92 -123 -171 -227 -174 -231 -3 -4 -44 18 -91 48 -168 110
-362 190 -520 215 -105 16 -281 7 -346 -18 -116 -45 -169 -118 -168 -233 1
-79 17 -114 80 -169 67 -59 156 -97 501 -217 476 -165 656 -264 781 -430 120
-159 170 -384 143 -635 -51 -470 -343 -765 -856 -866 -113 -22 -436 -25 -570
-4 -289 43 -585 169 -790 335 -65 53 -199 176 -203 187 -3 6 310 409 358 463
5 4 35 -12 67 -36 139 -106 375 -233 513 -278 340 -110 609 -55 674 138 22 62
20 157 -3 207 -44 95 -159 163 -416 245 -351 113 -457 151 -547 194 -268 127
-438 312 -493 533 -24 93 -33 240 -23 356 41 491 387 792 978 850 77 8 201 6
305 -3z m2596 -1 c143 -14 234 -34 372 -80 196 -64 378 -165 533 -292 l61 -51
-174 -233 c-108 -144 -180 -230 -187 -226 -6 4 -40 27 -75 51 -121 82 -272
151 -426 193 -88 25 -288 36 -369 20 -152 -28 -237 -117 -237 -246 0 -159 86
-222 502 -363 390 -134 519 -187 644 -267 251 -159 365 -379 365 -705 0 -416
-206 -743 -565 -898 -82 -36 -220 -75 -325 -94 -97 -17 -438 -17 -545 1 -374
60 -698 223 -943 473 l-53 55 182 229 c100 126 183 230 184 232 1 1 53 -33
115 -77 422 -295 868 -383 1065 -210 56 50 85 118 85 204 -1 183 -96 251 -552
394 -357 112 -510 180 -648 287 -163 125 -258 285 -290 487 -17 106 -8 339 18
432 56 205 165 365 327 480 228 162 585 240 936 204z m-4251 -379 l0 -340
-695 0 -695 0 0 -275 0 -275 630 0 630 0 0 -320 0 -320 -630 0 -630 0 0 -285
0 -285 703 -2 702 -3 0 -335 0 -335 -1085 0 -1085 0 -3 1558 -2 1557 1080 0
1080 0 0 -340z"/>
</g>
</svg>
